<svg xmlns="http://www.w3.org/2000/svg" viewBox="0 0 64 64">
  <rect width="64" height="64" rx="14" fill="#143a00"/>
  <!-- mug of latte -->
  <circle cx="32" cy="34" r="21" fill="#f4ead2" stroke="#186000" stroke-width="4"/>
  <!-- crescent moon -->
  <path d="M45 19a6 6 0 1 1-4.6-9.8A7.2 7.2 0 0 0 45 19z" fill="#8a5a30"/>
  <!-- sparkle -->
  <path d="M22 20l1 2 2 1-2 1-1 2-1-2-2-1 2-1z" fill="#8a5a30"/>
  <!-- mushroom cap + stem -->
  <path d="M21 37a11 7 0 0 1 22 0z" fill="#8a5a30"/>
  <path d="M28 37c2 5 2 8 1 11 2 1 4 1 6 0-1-3-1-6 1-11z" fill="#8a5a30"/>
</svg>
